<?xml version="1.0" encoding="utf-8"?>
<!-- Generator: Adobe Illustrator 23.1.1, SVG Export Plug-In . SVG Version: 6.00 Build 0)  -->
<svg version="1.1" id="Layer_6" xmlns="http://www.w3.org/2000/svg" xmlns:xlink="http://www.w3.org/1999/xlink" x="0px" y="0px"
	 viewBox="0 0 1387 327" style="enable-background:new 0 0 1387 327;" xml:space="preserve">
<style type="text/css">
	.st0{font-family:'Akashi';}
	.st1{font-size:243.4195px;}
	.st2{fill:#214A84;}
	.st3{fill:#3A7BD8;}
	.st4{fill:#3F3F3F;}
	.st5{fill:#262626;}
	.st6{display:none;}
	.st7{fill:#727272;}
	.st8{display:inline;fill:#3F3F3F;}
	.st9{display:inline;fill:#262626;}
	.st10{display:inline;fill:#2C64BF;}
	.st11{display:inline;fill:#CEA600;}
	.st12{display:inline;fill:#FFFFFF;}
	.st13{display:inline;}
	.st14{fill:none;stroke:#FFFFFF;stroke-width:12;stroke-miterlimit:10;}
	.st15{fill:#FFFFFF;}
	.st16{fill:url(#SVGID_1_);}
</style>
<text transform="matrix(0.7103 0 0 1 274.7295 270.7798)" class="st0 st1">BugCatcher</text>
<g id="bugshield2">
	<g id="Shield_2_">
		<path id="XMLID_2_" class="st2" d="M51.51,83.8l1.12,100.53c-0.1,39.99,35.48,75.37,88.12,94.31
			c52.74-18.69,88.48-53.9,88.58-93.89l1.6-100.52l-89.68-11.62L51.51,83.8z"/>
		<path id="XMLID_1_" class="st3" d="M141.08,72.64l-0.49,205.92c52.73-14.89,88.64-52.92,88.74-92.92l1.55-101.6L141.08,72.64z"/>
		<path class="st4" d="M243.32,71.19v113.3c0,47.59-41.15,90.64-101.97,113.3v-22.66c0.51-0.2,1.02-0.39,1.53-0.6
			c46.39-14.81,77.79-51.12,77.79-89.18l0.21-17.34l1.02-80.36l-0.05-0.01V87.5l-61.59-8.24l-18.9-2.57V54.72L243.32,71.19z"/>
		<path class="st5" d="M141.35,76.68L60.82,87.66l1.22,96.83c0,38.53,32.01,72.52,79.31,90.64v22.66
			c-60.82-22.66-101.97-65.71-101.97-113.3V71.19l101.97-16.47V76.68z"/>
	</g>
	<g id="Shield_3_" class="st6">
		<path id="XMLID_15_" class="st7" d="M39.38,79.15v115.9c0,48.68,42.1,92.72,104.31,115.9C205.91,287.77,248,243.73,248,195.05
			V79.15H39.38z"/>
		<path id="XMLID_14_" class="st8" d="M39.38,67.56v115.9c0,48.68,42.1,92.72,104.31,115.9C205.91,276.18,248,232.14,248,183.46
			V67.56L143.69,50.71L39.38,67.56z"/>
		<path id="XMLID_13_" class="st9" d="M38.84,65.69l0.54,117.77c0,48.68,42.1,92.72,104.31,115.9V50.71L38.84,65.69z"/>
		<path id="XMLID_12_" class="st10" d="M61.31,84.41l1.25,99.05c0,39.41,32.74,74.18,81.13,92.72
			c48.39-18.54,81.13-53.31,81.13-92.72l1.25-99.05l-82.38-11.23L61.31,84.41z"/>
		<path id="XMLID_11_" class="st11" d="M143.54,73.21v202.9c48.39-14.8,81.28-52.36,81.28-91.76l1.2-100.11L143.54,73.21z"/>
	</g>
	<g id="bug2" class="st6">
		<path class="st12" d="M192.15,140.95l-48.3,14.45l-45.01-14.51l-0.09-0.2c1.11-3.28,0.39-1.5,1.96-4.47l-14.74-11.49l9.69-8.73
			l12.22,9.51c3.32-3.96,7.1-7.41,11.24-10.21c2.98-12.85,13.05-22.3,25-22.3c11.41,0,21.1,8.59,24.55,20.54
			c5.67,3.3,10.75,7.76,15,13.12l10.07-10.1l10.92,7.64l-13.83,13.88C191.29,139.01,191.73,139.97,192.15,140.95z"/>
		<path class="st12" d="M96.38,146.48l43.91,14.15l1.15,68.32c-11.56-0.97-22.08-6.34-30.35-14.67l-15.44,12.02l-9.69-8.73
			l17.16-13.36c-2.78-4.39-5.05-9.24-6.73-14.42l-19.72,7.16L71,186.02l22.65-8.23c-0.44-3.15-0.66-6.38-0.66-9.67
			c0-1.42,0.05-2.83,0.13-4.22l-21.99-7.56l5.41-11.03l18.38,6.33C95.34,149.89,95.82,148.16,96.38,146.48z"/>
		<path class="st12" d="M194.15,189.99c-1.72,5.23-4.04,10.11-6.87,14.54l16.76,13.05l-9.69,8.73l-15.11-11.76
			c-8.37,8.33-19.01,13.62-30.68,14.46l-1.15-68.33l46.86-14.02c0.51,1.57,0.97,3.16,1.36,4.79l17.83-6.13l5.41,11.03l-21.4,7.36
			c0.09,1.46,0.14,2.93,0.14,4.42c0,3.36-0.24,6.66-0.69,9.88l22.07,8.02l-5.67,10.94L194.15,189.99z"/>
		<g id="Layer_22" class="st13">
		</g>
	</g>
	<g id="bug2_copy" class="st6">
		<g id="Layer_28_copy" class="st13">
			<line class="st14" x1="190.7" y1="119.55" x2="156.52" y2="160.48"/>
			<line class="st14" x1="156.52" y1="170.11" x2="205" y2="150.2"/>
			<line class="st14" x1="190.7" y1="221.78" x2="156.52" y2="190.02"/>
			<line class="st14" x1="156.52" y1="170.11" x2="205" y2="191.13"/>
		</g>
		<g id="Layer_28_copy_4" class="st13">
			<line class="st14" x1="99.3" y1="119.55" x2="133.48" y2="151.3"/>
			<line class="st14" x1="133.48" y1="170.11" x2="85" y2="150.2"/>
			<line class="st14" x1="99.3" y1="221.78" x2="133.48" y2="190.02"/>
			<line class="st14" x1="133.48" y1="170.11" x2="85" y2="191.13"/>
		</g>
		<ellipse id="fattest_1_" class="st12" cx="145.25" cy="167.61" rx="44.11" ry="61.39"/>
		<ellipse id="fat_1_" class="st15" cx="148.18" cy="164.55" rx="40.13" ry="55.86"/>
		<ellipse id="less_fat_1_" class="st15" cx="148.58" cy="163.99" rx="35.76" ry="49.78"/>
		<ellipse id="head_1_" class="st12" cx="144.25" cy="122.42" rx="21.85" ry="30.42"/>
	</g>
	<g id="bug2_copy_2" class="st6">
		<g id="Layer_28_copy_2" class="st13">
			<polygon class="st15" points="166.24,145.6 183.36,145.27 167.93,161 164.32,164.68 162.5,162.9 155.76,156.28 166.23,145.6 			
				"/>
			<polygon class="st15" points="204.48,123.75 191.64,136.83 191.33,137.15 189.37,139.15 187.14,139.19 172.24,139.48 
				181.45,130.09 184.85,126.62 185.16,126.31 195.91,115.35 			"/>
			
				<rect x="158.35" y="154.15" transform="matrix(0.944 -0.3299 0.3299 0.944 -42.2823 71.1626)" class="st15" width="60.34" height="12"/>
			
				<rect x="174.12" y="180.3" transform="matrix(0.6203 -0.7843 0.7843 0.6203 -93.1112 219.4461)" class="st15" width="12" height="51.19"/>
			
				<rect x="182.52" y="150.26" transform="matrix(0.3462 -0.9382 0.9382 0.3462 -46.1933 294.9557)" class="st15" width="12" height="60.71"/>
		</g>
		<g id="Layer_28_copy_5" class="st13">
			<polygon class="st15" points="124.91,140.41 113.59,140.63 109.9,140.71 109.89,140.71 108.15,139.33 102.82,135.11 
				89.09,124.25 96.53,114.84 109.44,125.05 114.07,128.71 118.41,132.15 122.33,135.25 122.34,135.25 128.76,140.34 124.92,140.41 
							"/>
			<polygon class="st15" points="136.68,146.6 134.24,149.69 129.24,156.01 117.3,146.56 129.74,146.32 136.16,146.19 
				136.17,146.19 			"/>
			
				<rect x="98.48" y="129.98" transform="matrix(0.33 -0.944 0.944 0.33 -81.1808 205.9325)" class="st15" width="12" height="60.34"/>
			
				<rect x="87.29" y="199.9" transform="matrix(0.7844 -0.6203 0.6203 0.7844 -103.3779 114.4207)" class="st15" width="51.19" height="12"/>
			
				<rect x="74.12" y="174.62" transform="matrix(0.9382 -0.3462 0.3462 0.9382 -56.0688 47.3396)" class="st15" width="60.71" height="12"/>
		</g>
		<path class="st12" d="M107.57,140.75l-7.45,0.15c0.81-1.99,1.71-3.93,2.7-5.79c1.91-3.62,4.13-6.99,6.62-10.06
			c3.35-4.13,7.19-7.7,11.4-10.6c7.63-5.24,16.5-8.24,25.96-8.24c8.32,0,16.18,2.32,23.14,6.45c5.77,3.41,10.92,8.06,15.22,13.65
			c2.45,3.22,4.64,6.74,6.48,10.52c0.37,0.74,0.72,1.49,1.06,2.25l-0.48,0.01l-2.85,0.06l-2.23,0.04l-14.9,0.29l-5.43,0.11
			l-38.04,0.75h-0.01l-3.84,0.07h-0.01l-11.32,0.22l-3.69,0.08h-0.01L107.57,140.75z"/>
		<path class="st12" d="M198.62,167.61c0,3.43-0.24,6.8-0.7,10.08c-0.56,4.08-1.47,8.03-2.69,11.8c-1.76,5.46-4.15,10.54-7.08,15.12
			c-2.19,3.44-4.68,6.59-7.43,9.41c-9.09,9.33-20.95,14.98-33.92,14.98c-13.1,0-25.05-5.75-34.18-15.24
			c-2.73-2.84-5.2-6.01-7.38-9.46c-2.87-4.55-5.22-9.59-6.94-15c-1.21-3.78-2.11-7.73-2.66-11.82c-0.44-3.21-0.67-6.51-0.67-9.87
			c0-1.47,0.04-2.94,0.13-4.38c0.25-4.16,0.85-8.21,1.76-12.1c0.33-1.42,0.71-2.82,1.12-4.19l7.53-0.14l5.78-0.12l6-0.12h0.01
			l12.44-0.24l6.42-0.13h0.01l25.99-0.51h0.01l4.06-0.08h0.01l17.12-0.33h0.01l6.24-0.12l4.83-0.1l0.57-0.01
			c0.64,1.92,1.2,3.89,1.67,5.9c0.93,3.89,1.54,7.93,1.8,12.09C198.57,164.54,198.62,166.07,198.62,167.61z"/>
		<path class="st12" d="M109.89,140.71l-2.32,0.04c0.18-0.48,0.38-0.95,0.58-1.42c1.63-3.82,3.62-7.38,5.92-10.62
			c1.78-2.53,3.75-4.87,5.88-6.98c8.19-8.14,18.76-13.05,30.29-13.05c7.17,0,13.96,1.9,20.04,5.29c5.53,3.08,10.47,7.39,14.57,12.65
			c2.49,3.19,4.67,6.72,6.48,10.53c0.31,0.64,0.6,1.28,0.89,1.94l-2.85,0.06l-2.23,0.04l-14.9,0.29l-5.43,0.11l-38.04,0.75h-0.01
			l-3.84,0.07h-0.01l-11.32,0.22l-3.69,0.08H109.89z"/>
		<path class="st12" d="M197.39,164.55c0,4.3-0.41,8.49-1.19,12.51c-0.78,4.03-1.92,7.89-3.39,11.54
			c-2.01,4.98-4.62,9.55-7.73,13.58c-2.5,3.26-5.33,6.16-8.42,8.64c-7.53,6.06-16.63,9.59-26.42,9.59
			c-11.37,0-21.82-4.77-29.96-12.71c-2.81-2.75-5.35-5.87-7.56-9.31c-2.41-3.73-4.42-7.83-5.97-12.21
			c-1.32-3.72-2.31-7.63-2.93-11.71v-0.01c-0.42-2.74-0.66-5.56-0.72-8.43v-0.01c-0.01-0.49-0.02-0.97-0.02-1.47
			c0-3.74,0.31-7.39,0.91-10.92v-0.01c0.38-2.33,0.89-4.61,1.52-6.82l5.78-0.12l6-0.12h0.01l12.44-0.24l6.42-0.13h0.01l25.99-0.51
			h0.01l4.06-0.08h0.01l17.12-0.33h0.01l6.24-0.12l4.83-0.1c0.62,1.99,1.15,4.03,1.59,6.12c0.81,3.93,1.28,8.03,1.34,12.24
			C197.39,163.79,197.39,164.17,197.39,164.55z"/>
		<path class="st12" d="M124.91,140.41l-11.32,0.22c1.36-3.03,2.97-5.87,4.82-8.48c0.69-0.99,1.43-1.95,2.19-2.88
			c7.63-9.29,18.3-15.05,30.1-15.05c7.46,0,14.48,2.31,20.55,6.35c3.82,2.54,7.26,5.75,10.2,9.52c2.18,2.76,4.09,5.81,5.69,9.1
			l-14.9,0.29l-5.43,0.11l-38.04,0.75h-0.01l-3.84,0.07H124.91z"/>
		<path class="st12" d="M192.72,163.99c0,0.35,0,0.7-0.01,1.05c-0.06,3.54-0.44,7-1.1,10.32c-0.79,4.04-2,7.89-3.57,11.48
			c-1.92,4.4-4.38,8.41-7.28,11.92c-2.62,3.2-5.62,5.98-8.91,8.25c-6.21,4.3-13.44,6.76-21.15,6.76c-9.52,0-18.3-3.75-25.35-10.08
			c-2.92-2.62-5.55-5.69-7.81-9.12c-2.1-3.19-3.88-6.69-5.27-10.43c-1.38-3.68-2.4-7.6-2.98-11.69c-0.22-1.45-0.37-2.93-0.47-4.43
			c-0.09-1.33-0.14-2.67-0.14-4.03c0-2.9,0.21-5.75,0.62-8.51c0.43-3.04,1.11-5.98,1.99-8.8l6-0.12h0.01l12.44-0.24l6.42-0.13h0.01
			l25.99-0.51h0.01l4.06-0.08h0.01l17.12-0.33h0.01l6.24-0.12c0.84,2.43,1.52,4.95,2.02,7.56
			C192.35,156.33,192.72,160.11,192.72,163.99z"/>
		<path class="st12" d="M136.17,146.19l25.99-0.51c-4.46,4.47-10.23,7.16-16.54,7.16c-4.09,0-7.95-1.13-11.38-3.15
			c-1.61-0.93-3.11-2.07-4.5-3.37l6.42-0.13H136.17z"/>
		<path class="st12" d="M171.3,122.42c0,6.37-1.66,12.28-4.49,17.17l-38.04,0.75h-0.01l-3.84,0.07h-0.01
			c-0.99-1.61-1.86-3.33-2.57-5.16h-0.01c-0.74-1.89-1.33-3.89-1.73-5.98c-0.43-2.2-0.66-4.49-0.66-6.85c0-0.23,0-0.46,0.01-0.69
			c0.04-2.52,0.35-4.96,0.89-7.28C123.79,101.51,133.77,92,145.62,92c11.3,0,20.89,8.64,24.32,20.66c0.13,0.43,0.25,0.87,0.34,1.31
			c0.53,2.11,0.86,4.32,0.97,6.6C171.28,121.18,171.3,121.8,171.3,122.42z"/>
	</g>
	<g>
		<g>
			<path class="st15" d="M97.56,103.19c0.86,0.16,21.24,3.26,25.61,26.2c-5.54,5.87-8.99,14.07-8.99,23.19c0,0.1,0,0.15,0,0.22
				h58.05c0-0.07,0.03-0.12,0.03-0.22c0-9.12-3.45-17.32-9-23.19c4.38-22.94,24.76-26.04,25.61-26.2c1.92-0.35,3.16-2.17,2.84-4.08
				c-0.38-1.91-2.17-3.19-4.08-2.84c-0.25,0.03-23.73,3.55-30.46,28.17c-4.14-2.51-8.89-3.95-13.97-3.95
				c-5.04,0-9.79,1.47-13.94,3.95c-6.73-24.62-30.2-28.14-30.46-28.17c-1.91-0.35-3.7,0.93-4.08,2.84
				C94.37,101.02,95.64,102.84,97.56,103.19z"/>
			<path class="st15" d="M172.32,152.9h-58.24v-0.32c0-8.82,3.19-17.07,8.98-23.22c-4.09-21.33-21.92-25.45-25.45-26.06l-0.07-0.01
				c-0.95-0.17-1.78-0.71-2.33-1.5c-0.55-0.79-0.76-1.75-0.59-2.7c0.4-2,2.24-3.28,4.2-2.92c0.05,0.01,5.99,0.86,12.83,4.88
				c6.13,3.6,14.16,10.56,17.67,23.24c4.31-2.55,9.1-3.9,13.88-3.9c4.86,0,9.67,1.35,13.91,3.9c3.51-12.68,11.54-19.64,17.67-23.24
				c6.84-4.02,12.78-4.87,12.84-4.88c1.95-0.36,3.79,0.92,4.19,2.92c0.33,2-0.95,3.84-2.92,4.2l-0.07,0.01
				c-3.53,0.61-21.36,4.73-25.46,26.06c5.8,6.15,8.99,14.39,8.99,23.22c0,0.07-0.01,0.11-0.02,0.16c-0.01,0.03-0.01,0.05-0.01,0.07
				V152.9z M114.28,152.7h57.86c0,0,0-0.01,0-0.01c0.01-0.03,0.02-0.07,0.02-0.11c0-8.79-3.19-17-8.97-23.12l-0.03-0.04l0.01-0.05
				c1.8-9.44,6.46-16.67,13.86-21.5c5.12-3.35,9.94-4.44,11.77-4.76l0.06-0.01c1.86-0.34,3.08-2.08,2.76-3.97
				c-0.38-1.89-2.12-3.1-3.97-2.76c-0.06,0.01-5.96,0.86-12.77,4.85c-6.12,3.6-14.14,10.55-17.62,23.25l-0.03,0.13l-0.11-0.07
				c-4.24-2.58-9.05-3.94-13.92-3.94c-4.78,0-9.58,1.36-13.89,3.94l-0.11,0.07l-0.03-0.12c-3.47-12.7-11.49-19.65-17.61-23.25
				c-6.8-4-12.71-4.85-12.76-4.85c-1.85-0.34-3.59,0.87-3.97,2.76c-0.16,0.9,0.03,1.8,0.55,2.55c0.52,0.75,1.31,1.25,2.21,1.42
				l0.06,0.01c1.83,0.32,6.65,1.41,11.77,4.76c7.39,4.83,12.05,12.07,13.85,21.5l0.01,0.05l-0.03,0.04
				c-5.78,6.12-8.96,14.33-8.96,23.12V152.7z"/>
		</g>
		<g>
			<path class="st15" d="M203.92,140.29c0.7-2.28-0.55-4.67-2.82-5.4c-2.28-0.67-4.67,0.58-5.37,2.86c0,0-3.4,16.92-4.52,20.58
				c-2.3,0.61-9.25,2.56-14.04,3.91c-0.17-0.78-0.32-1.55-0.49-2.3h-66.93c-0.18,0.75-0.32,1.52-0.5,2.3
				c-4.81-1.35-11.76-3.29-14.03-3.91c-1.14-3.65-4.52-20.61-4.52-20.61c-0.7-2.25-3.12-3.53-5.4-2.83c-2.24,0.7-3.5,3.12-2.8,5.37
				l5.88,25.07l19.64,5.43c-0.14,1.84-0.26,3.68-0.26,5.54c0,2.31,0.15,4.55,0.35,6.77l-19.61,8.76l-4.25,34.65
				c-0.41,2.33,1.14,4.55,3.47,4.99c2.33,0.4,4.55-1.17,4.96-3.5c0,0,2.79-26.27,3.48-30.12c1.9-0.87,8.11-3.62,13.37-6.01
				c4.67,19.82,17.98,34.15,33.65,34.15c15.71,0,29.01-14.33,33.68-34.15c5.25,2.39,11.5,5.14,13.37,6.01
				c0.67,3.85,3.49,30.12,3.49,30.12c0.41,2.33,2.63,3.91,4.99,3.5c2.34-0.44,3.89-2.66,3.44-4.99l-4.28-34.65l-19.58-8.76
				c0.23-2.22,0.35-4.46,0.35-6.77c0-1.87-0.12-3.71-0.24-5.51l19.61-5.46L203.92,140.29z"/>
			<path class="st15" d="M88.46,231.63c-0.25,0-0.5-0.02-0.75-0.06c-2.38-0.45-3.97-2.74-3.55-5.1l4.25-34.7l19.6-8.75
				c-0.24-2.64-0.35-4.71-0.35-6.71c0-1.87,0.12-3.73,0.26-5.47L88.3,165.4l-0.01-0.06l-5.88-25.07c-0.71-2.3,0.57-4.77,2.87-5.49
				c2.32-0.72,4.8,0.58,5.53,2.9c0.04,0.18,3.36,16.84,4.5,20.56c1.86,0.5,6.69,1.85,10.95,3.04l2.94,0.82
				c0.07-0.32,0.14-0.64,0.21-0.96c0.09-0.41,0.17-0.83,0.27-1.24l0.02-0.08h67.08l0.02,0.08c0.1,0.44,0.19,0.87,0.28,1.32
				c0.06,0.29,0.12,0.59,0.19,0.88c4.06-1.14,11.45-3.22,13.89-3.87c1.12-3.71,4.46-20.35,4.5-20.52c0.72-2.35,3.14-3.63,5.5-2.94
				c2.34,0.76,3.61,3.18,2.89,5.52l-5.9,25.09l-0.06,0.02l-19.54,5.44c0.12,1.76,0.23,3.57,0.23,5.44c0,2.27-0.11,4.46-0.34,6.71
				l19.57,8.75l0.01,0.05l4.28,34.65c0.22,1.15-0.03,2.31-0.7,3.27c-0.66,0.96-1.67,1.61-2.83,1.83c-2.4,0.41-4.69-1.2-5.11-3.58
				c-0.03-0.27-2.8-26.09-3.48-30.07c-0.93-0.43-2.81-1.28-5.19-2.34c-2.52-1.12-5.36-2.4-8.02-3.61
				c-2.33,9.82-6.72,18.27-12.7,24.43c-6.13,6.33-13.41,9.67-21.05,9.67c-7.62,0-14.89-3.34-21.02-9.67
				c-5.97-6.17-10.36-14.62-12.7-24.43c-2.86,1.3-6.02,2.71-8.56,3.85c-2.11,0.94-3.79,1.7-4.66,2.09
				c-0.7,3.97-3.45,29.8-3.47,30.06C92.41,230.11,90.55,231.63,88.46,231.63z M88.59,191.9l-4.24,34.59
				c-0.4,2.27,1.12,4.45,3.4,4.88c2.27,0.39,4.44-1.14,4.85-3.42c0.03-0.26,2.8-26.31,3.48-30.12l0.01-0.05l0.05-0.02
				c0.85-0.39,2.55-1.15,4.71-2.12c2.57-1.15,5.78-2.58,8.67-3.9l0.11-0.05l0.03,0.12c4.8,20.38,18.29,34.07,33.55,34.07
				c15.29,0,28.79-13.69,33.59-34.07l0.03-0.12l0.11,0.05c2.69,1.22,5.58,2.52,8.13,3.66c2.42,1.08,4.33,1.93,5.24,2.36l0.05,0.02
				l0.01,0.05c0.67,3.81,3.46,29.86,3.49,30.13c0.4,2.27,2.59,3.81,4.88,3.42c1.11-0.21,2.07-0.83,2.7-1.75
				c0.64-0.92,0.87-2.03,0.66-3.13l-4.27-34.6l-19.6-8.76l0.01-0.07c0.24-2.26,0.35-4.47,0.35-6.76c0-1.89-0.12-3.73-0.24-5.51
				l-0.01-0.08l0.08-0.02l19.56-5.45l5.87-24.99c0.69-2.24-0.52-4.56-2.76-5.28c-2.25-0.66-4.56,0.56-5.25,2.8
				c-0.03,0.16-3.41,16.96-4.52,20.58l-0.02,0.05l-0.05,0.01c-2.4,0.64-9.97,2.76-14.04,3.91l-0.1,0.03l-0.02-0.1
				c-0.07-0.33-0.14-0.66-0.21-0.99c-0.09-0.42-0.17-0.83-0.27-1.24h-66.77c-0.09,0.38-0.17,0.76-0.25,1.16
				c-0.07,0.35-0.15,0.7-0.23,1.06l-0.02,0.1l-3.13-0.88c-4.3-1.2-9.17-2.57-11-3.06l-0.05-0.01l-0.02-0.05
				c-1.13-3.62-4.48-20.45-4.52-20.62c-0.69-2.2-3.06-3.44-5.28-2.76c-2.19,0.69-3.42,3.04-2.74,5.25l5.87,25.02l19.67,5.44
				l-0.01,0.08c-0.14,1.76-0.26,3.65-0.26,5.54c0,2.01,0.11,4.09,0.35,6.76l0.01,0.07l-0.06,0.03L88.59,191.9z"/>
		</g>
	</g>
	
		<linearGradient id="SVGID_1_" gradientUnits="userSpaceOnUse" x1="9.4277" y1="492.6499" x2="213.3937" y2="492.7205" gradientTransform="matrix(0.7335 -0.6797 0.5661 0.6109 -211.9772 -68.1882)">
		<stop  offset="0" style="stop-color:#262626"/>
		<stop  offset="1" style="stop-color:#3F3F3F"/>
	</linearGradient>
	<polygon class="st16" points="216.61,80.37 67.01,219 80.68,233.75 230.28,95.12 	"/>
</g>
</svg>
